<?xml version="1.0" standalone="no"?><!DOCTYPE svg PUBLIC "-//W3C//DTD SVG 1.1//EN" "http://www.w3.org/Graphics/SVG/1.1/DTD/svg11.dtd" [<!ENTITY nbsp " ">]><svg data-noselect="" viewBox="202.99621528057003 122.38878653295109 419 343.3099887584889" width="419" ref="svg_canvas" height="343.3099887584889" preserveAspectRatio="none" version="1.1" xmlns="http://www.w3.org/2000/svg" style="background: #ffffff;"><g id="shape_9VQNyNAnYa" ref="shape_9VQNyNAnYa" key="shape_9VQNyNAnYa" transform="translate(360.17294311523005,202.3887865329511) rotate(0,52.323272165337,52.323272165337) scale(1,1)" style="cursor:move;display:inline;opacity:1;" filter="">
            <g style="display:inline"><rect fill="rgba(0,0,0,0)" width="124.64654433067" height="107.77872934526783" x="-10" y="-10"></rect><svg xmlns="http://www.w3.org/2000/svg" viewBox="0 -0.00005493152275448665 128.16000366210938 107.50209045410156" width="104.64654433067" height="87.77872934526783" preserveAspectRatio="none" data-parent="shape_9VQNyNAnYa"><title>41</title><g data-name="图层 2"><g data-name="ͼ" fill-rule="evenodd"><path d="M64.41 0a53.52 53.52 0 0 1 34.08 12.19l-5.13.7a50.08 50.08 0 0 0-79 40.86 50.72 50.72 0 0 0 .77 8.77c-1.5-1.7-3.24-3.71-4.31-4.94a60.47 60.47 0 0 1-.13-3.83A53.76 53.76 0 0 1 64.41 0zM28.89 89.05a50.07 50.07 0 0 0 70.93.11c.38-.38.75-.77 1.12-1.17a9.63 9.63 0 0 1 2.06 3.15l-.6.62a53.76 53.76 0 0 1-82.06-7.2 21.93 21.93 0 0 0 8.53 4.49zm77.47-68.91a53.47 53.47 0 0 1 3.41 4.76l-4.3.18a51.22 51.22 0 0 0-3.55-4.5l4.44-.44zm8 13.75a53.84 53.84 0 0 1-4.45 48.47A14.29 14.29 0 0 0 107 80.1a50.18 50.18 0 0 0 3.36-46.27z" fill="#81181d"></path><path fill="#81181d" d="M128.16 15.53l-.08-3.01-92.31 9.1.09.92 92.3-7.01zM33.62 24.9l93.45 3.53-.21 3-93.25-5.68.01-.85zM34 40a9.53 9.53 0 0 0-2.35 2c-3.27 3.88-1.6 7.82 2.28 10.49A27.55 27.55 0 0 0 41 55.61c9 2.8 19.22 2.79 28.55 2.21 8.93-.54 19.53-1.66 27.38-6.7 3.32-2.14 6.15-5.29 3.38-9.09a5.64 5.64 0 0 0-2.43-1.89A7.51 7.51 0 0 1 99.8 45c-.28 3.88-5.35 5.58-8.41 6.55a98.63 98.63 0 0 1-27 4.24 97.85 97.85 0 0 1-18-1.22C41.37 53.59 34.31 51.89 32 48c-1.07-1.78-1-4.21 2.55-7.32.22-.19.33-.31.2-.64s-.46-.2-.75-.04z"></path><path d="M44 21.48a27.08 27.08 0 0 0-2.45 2.85c-3 4.08-2.65 6.72 1.43 9.79 3.07 2.31 6.55 3.28 9.85 5.12 5.22 2.9 7.75 6.21 4.67 11.43A15.68 15.68 0 0 1 52.28 56l2.67.38a32.31 32.31 0 0 0 3.4-3.62c3.42-4.27 5.08-9.37.15-13.37-4-3.28-9.31-3.89-13.73-6.38s-3.14-6.45-.55-9.93A7 7 0 0 1 46 21.3z" fill="#81181d"></path><path d="M55.17 20.38A15.53 15.53 0 0 0 52 24.79c-1.79 3.93.11 6.83 3.44 9 4.31 2.74 9.44 3.19 13 7.08 3.35 3.66 1.56 6.84-.93 10.13A25.64 25.64 0 0 1 63 55.81l1.69.58a40.81 40.81 0 0 0 5.55-6.1c2.65-3.71 4.24-8.92 0-12.24-2.63-2-6.09-3.09-9.17-4.29-4.15-1.63-6.72-2.8-7.47-5.12-1-3 3.38-8.33 3.38-8.33z" fill="#81181d"></path><path d="M69.09 19.36s-6.4 5.11-5.42 9.53c.6 2.7 4.71 5.25 8.16 7s9.46 3.23 11 7.5c.74 2.14-.23 4.25-1.77 6.46a38.56 38.56 0 0 1-5.83 6.44l3.48-1a22.6 22.6 0 0 0 5-6c2.21-4.1 1.81-8.59-2-11.66-2.54-2-5.86-2.54-9.24-3.91-2.88-1.17-5.75-2.81-6.41-4.86-1.43-4.41 5.45-9.72 5.45-9.72zM34 56.12s.88 6 7.81 11.24 16.4 7.82 25.61 7.48c0 0 3.83-5.61 12.81-4.3 0 0-3.36-2.93-1.63-6.35.93-1.84 3.66-4.07 6-5.33-11 3.35-27.65 4.74-50.63-2.74zm61.1 5.14a37.33 37.33 0 0 0 6.24-11.47s-4.36 4.56-13.62 8c2.22-.23 4.8.5 7.38 3.47z" fill="#81181d"></path><path d="M73.38 74s3.84-2.4 10.49-1.31c2.91.48 4.74 0 5.93-.71a5.32 5.32 0 0 0 2.34-4.37 4.72 4.72 0 0 0-3.21-4.27 4.1 4.1 0 0 0-3.64.35c-1.45.93-2.17 3.32-.57 4.44 1.26.87 2.52 0 2.8-1.33a2 2 0 0 0 0-.8c-.19-1 1-.55 1.29.51a2.61 2.61 0 0 1-1 2.52c-1.58 1.38-4.5 1.45-5.81-.35a4.79 4.79 0 0 1 .68-5.81 8.51 8.51 0 0 1 7.49-2.44A5.18 5.18 0 0 1 94 63.41a7.11 7.11 0 0 1 2.87 2c2 2.39 1 6.15-1.52 7.76a9.11 9.11 0 0 1-5.53 1.08s-2.43 1-8.08 0-8.36-.25-8.36-.25z" fill="#baa023"></path><path d="M53.89 77.88a.92.92 0 0 1 .87-1.62s11.36 6.23 22.36 0a.92.92 0 0 1 .88 1.58c-11.87 6.75-24.08.06-24.11.04z" fill="#81181d"></path><path d="M0 54.1s.14 5.44 4.66 7.38c0 0 .49-4.18-4.66-7.38zM22.85 48.71s-.93 4.11 2.1 6.43c.05 0 1.17-3.04-2.1-6.43zM.33 62.24s2.56 4.26 6.54 3.09c0 0-.93-2.16-6.54-3.09zM21.55 54.89s1.11 3.7 4.33 3.57c0 0-.29-1.8-4.33-3.57zM7.44 64.75s2.4-1.8-.08-6.85c0 0-1.77 5.41.08 6.85zM26.42 58.14s2.15-.9 1.25-5.17c0 .03-2.37 3.73-1.25 5.17zM3.93 67.21s2.42 4.81 7 2.87c0 0-2.1-2.79-7-2.87zM23.31 59.32s.91 4.08 4.72 3.49a7 7 0 0 0-4.72-3.49zM12 68.54c0-.09-2.29-.76-1.15-6.66-.03 0 3.35 3.31 1.15 6.66zM29.1 61.85c0-.07-1.58-1 .41-5.22 0 0 1.91 3.13-.41 5.22zM8.23 72.51a8.18 8.18 0 0 0 8.34 2.54 7.92 7.92 0 0 0-8.34-2.54zM25.54 64.12a6.36 6.36 0 0 0 5.78 3.5 6.14 6.14 0 0 0-5.78-3.5zM14.77 65.74s-1.41 6.09 2.35 7.45c0 0 1.12-4.89-2.35-7.45zM31.75 60.28s-2.23 4.31.34 6c0 .05 1.77-3.41-.34-6zM13.6 76.77s3.63 4.29 7.77 1.26c0-.03-1.58-2.24-7.77-1.26zM28.76 68.35s1.91 3.92 5.6 2.43c0 0-.76-1.99-5.6-2.43zM19.6 69.64s-1.53 5.19 2.59 7.29a7.7 7.7 0 0 0-2.59-7.29zM34.63 64.13s-2.14 3.61.56 6a6 6 0 0 0-.56-6zM20 81a6 6 0 0 0 6.68.87S24.45 79.58 20 81zM32.78 72.71a4.66 4.66 0 0 0 4.86 1.93s-1.26-2.11-4.86-1.93zM24.42 73.11s-.22 5.68 3.16 7.54a7.56 7.56 0 0 0-3.16-7.54zM37.6 67.66s-1.25 4.23.94 6.27a5.87 5.87 0 0 0-.94-6.27zM25.84 84.75s4.47 2.73 7.52-1.37c0 0-4.47-1.31-7.52 1.37zM36.45 76.68s2.84 2.91 5.91.41c0 0-3.11-1.84-5.91-.41zM29.49 76s.77 6.07 4.25 6.72A7.86 7.86 0 0 0 29.49 76zM40.87 70.76s-.58 4.71 1.92 5.87a6.13 6.13 0 0 0-1.92-5.87zM32.82 88s3.38.93 8.28-2.57c0 0-.27-4.1-5.94-6.77 0 0 .93 4.14 3 5.77A11.43 11.43 0 0 0 32.82 88zM41.08 80.43s2.36 1.35 6.72-.35c0 0 .58-3.13-3.18-6.22 0 0-.09 3.28 1.11 4.9a8.88 8.88 0 0 0-4.65 1.67zM42.09 89.39a38.33 38.33 0 0 0 13.25 2c7.9 0 15.31-2.23 22.68-4.87a64.54 64.54 0 0 1 10.36-3.19c6-1.06 12.89 0 16.44 5.45 2.58 3.91 3.81 10-5.55 13.84a11.59 11.59 0 0 0 6.34-3.14c3-3.25 2.32-8.38.08-11.84a12.18 12.18 0 0 0-7-5.24 23.7 23.7 0 0 0-11.1-.31c-7.63 1.37-14.39 5.09-21.87 6.7a64.08 64.08 0 0 1-23.63.6z" fill="#ec771a"></path><path d="M39.63 85.51s13.82 2.87 23.47 1A81.45 81.45 0 0 0 77 82.19c5.7-2.21 11.31-4 17.58-3.53 5.3.4 11 2.57 14.27 10.24a11.87 11.87 0 0 0-3.85-7.38c-6.07-5.62-15.49-4.82-22.8-2.69-6.16 1.8-11.58 4.7-18 6-9.35 1.81-19.29 1.73-24.38 0z" fill="#ec771a"></path><path d="M46.94 80s6.84 5 14.55 4a28.19 28.19 0 0 1-14.17-4.7z" fill="#ec771a"></path></g></g></svg></g>
        </g><g id="shape_RwMyvYnIc6" ref="shape_RwMyvYnIc6" key="shape_RwMyvYnIc6" transform="translate(282.49621856689,175.90459332597) rotate(0,245.125,153.806) scale(1,1)" style="cursor:move;display:inline;opacity:1;" filter="">
            <g style="display:inline"><svg xmlns="http://www.w3.org/2000/svg" version="1.1" xmlns:xlink="http://www.w3.org/1999/xlink" width="344" height="307.612" viewBox="0 0 344 307.612" preserveAspectRatio="none" data-parent="shape_RwMyvYnIc6"><rect fill="rgba(0,0,0,0)" width="176" height="42" x="42" y="132.806"></rect><g data-width="176" transform="translate(42, 0)"><line x1="0" x2="176" y1="184.04600000000002" y2="184.04600000000002" stroke="rgb(0, 0, 0)" stroke-width="1.5120000000000002" stroke-opacity="1"></line></g><g data-width="176" transform="translate(42, 0)"><path d="M30.95-11.68L30.95-11.68Q31.63-8.78 32.68-6.64Q33.73-4.49 35.76-2.18Q37.80 0.13 41.54 3.36L41.54 3.36Q41.03 4.16 38.49 5.31Q35.95 6.47 34.73 6.55L34.73 6.55Q33.31 5.59 31.86 1.81Q30.41-1.97 28.77-7.14L28.77-7.14L28.43-8.27Q28.43-6.05 25.68-2.60Q22.93 0.84 19.03 3.63Q15.12 6.43 11.80 6.89L11.80 6.89Q16.55 4.07 20.35-2.00Q24.15-8.06 26.31-14.36Q28.48-20.66 28.48-23.65L28.48-23.65Q26.08-23.06 24.07-22.39L24.07-22.39L22.76-21.97Q22.18-20.08 20.79-17.87Q19.40-15.67 17.77-13.94Q16.13-12.22 14.91-11.68L14.91-11.68Q16.38-14.20 17.43-17.83Q18.48-21.46 19.01-24.97Q19.53-28.48 19.53-30.62L19.53-30.62Q19.53-31.84 19.36-32.17L19.36-32.17Q20.24-32.42 21.38-32.42L21.38-32.42Q22.93-32.42 24.15-32.02Q25.37-31.63 25.41-31.04L25.41-31.04Q25.66-30.74 25.66-30.24L25.66-30.24Q25.66-29.57 25.28-28.90L25.28-28.90Q25.28-28.90 24.86-27.64L24.86-27.64Q24.86-27.47 24.61-26.80L24.61-26.80L28.85-27.55Q29.36-27.93 29.90-28.12Q30.45-28.31 31.67-28.56L31.67-28.56L32.80-28.85L33.64-28.31Q34.73-27.64 35.24-26.99Q35.74-26.33 35.83-24.82L35.83-24.82Q35.28-23.02 34.86-21.92L34.86-21.92Q34.52-21.34 34.40-21.04L34.40-21.04Q34.19-20.66 33.96-20.22Q33.73-19.78 33.39-19.24L33.39-19.24Q32.63-17.60 31.58-14.70Q30.53-11.80 30.95-11.68L30.95-11.68ZM17.81-8.27L17.81-8.27Q15.58-5.29 14.45-4.12Q13.31-2.94 10.96-1.01L10.96-1.01L9.16 0.46Q8.61 0.80 8.15 1.24Q7.69 1.68 7.35 2.06L7.35 2.06Q6.64 2.81 6.20 3.11Q5.75 3.40 4.96 3.40L4.96 3.40Q3.53 2.94 2.52 1.83Q1.51 0.71 1.34-2.14L1.34-2.14Q1.93-2.14 3.21-2.37Q4.49-2.60 5.82-3.13Q7.14-3.65 7.77-4.54L7.77-4.54Q7.39-5.17 7.39-7.52L7.39-7.52Q7.39-8.74 7.43-9.62Q7.48-10.50 7.52-11.05L7.52-11.05Q7.60-12.89 7.60-13.36L7.60-13.36Q7.27-13.23 6.43-13.06L6.43-13.06Q4.62-12.68 3.78-12.14L3.78-12.14Q2.69-12.81 1.95-13.71Q1.22-14.62 0.97-16.00L0.97-16.00Q1.05-16.21 7.60-17.39L7.60-17.39L7.60-21.80Q7.77-22.13 7.77-23.14L7.77-23.14Q7.77-24.19 7.60-24.86L7.60-24.86Q7.18-24.95 6.47-24.95L6.47-24.95Q6.09-24.95 5.42-24.86L5.42-24.86L4.45-24.82Q3.86-24.82 3.32-24.99L3.32-24.99Q2.77-25.28 1.83-26.65Q0.88-28.01 0.88-28.81L0.88-28.81Q0.88-29.15 1.09-29.27L1.09-29.27Q2.02-28.90 3.57-28.90L3.57-28.90Q5.63-28.90 8.23-29.46Q10.84-30.03 12.43-30.66L12.43-30.66Q12.52-30.70 13.06-30.91Q13.61-31.12 14.20-31.12L14.20-31.12Q14.78-31.12 15.41-30.83L15.41-30.83Q16.04-30.03 16.76-28.90Q17.47-27.76 17.51-27.26L17.51-27.26Q16.72-26.71 15.60-26.54Q14.49-26.38 12.64-26.33L12.64-26.33L11.63-26.29L11.68-22.34Q11.68-20.45 11.55-18.82L11.55-18.82Q11.55-18.65 12.41-18.92Q13.27-19.19 13.48-19.24L13.48-19.24Q14.28-19.53 14.45-19.53L14.45-19.53Q15.37-18.65 15.98-17.96Q16.59-17.26 16.59-16.55L16.59-16.55Q16.59-16.34 16.55-16.21L16.55-16.21Q16.38-15.75 15.52-15.52Q14.66-15.29 13.36-15.12L13.36-15.12Q12.43-14.99 12.10-14.87L12.10-14.87Q11.84-13.90 11.78-12.52Q11.72-11.13 11.72-8.90L11.72-8.90L11.63-5.75Q12.56-6.17 15.04-7.20Q17.51-8.23 17.81-8.27L17.81-8.27ZM22.30-28.18L22.30-28.18Q22.97-28.94 23.18-30.28L23.18-30.28Q23.02-30.45 23.02-30.45L23.02-30.45L22.64-30.45Q22.51-29.48 22.09-27.93L22.09-27.93L22.30-27.93L22.30-28.18ZM33.52-26.08L33.52-26.08Q33.43-26.12 33.22-26.21L33.22-26.21Q33.31-25.96 33.33-25.91Q33.35-25.87 33.52-25.70L33.52-25.70L33.52-25.96Q33.60-26.08 33.68-26.08L33.68-26.08L33.52-26.08ZM5.42-1.26L5.42-1.26Q5.21-0.88 5.12-0.55L5.12-0.55L5.42-0.55Q5.54-0.63 5.69-0.76Q5.84-0.88 5.96-1.05L5.96-1.05L5.96-1.26L5.42-1.26ZM35.11 2.10L35.11 2.10Q35.66 1.51 35.91 0.76L35.91 0.76Q35.66 0.55 35.18 0.15Q34.69-0.25 34.23-0.38L34.23-0.38Q34.19-0.29 34.06-0.08Q33.94 0.13 33.94 0.63L33.94 0.63Q34.10 0.84 34.27 1.24Q34.44 1.64 34.61 1.85Q34.78 2.06 35.11 2.23L35.11 2.23L35.11 2.10Z" transform="translate(0 169.806) " fill="rgb(0, 0, 0)" stroke="rgb(0, 0, 0)" stroke-width="0.07" data-glyph-w="44" data-glyph-h="54.978" data-glyph-ascender="43.806000000000004" data-glyph-descender="-11.172"></path><path d="M30.95-11.68L30.95-11.68Q31.63-8.78 32.68-6.64Q33.73-4.49 35.76-2.18Q37.80 0.13 41.54 3.36L41.54 3.36Q41.03 4.16 38.49 5.31Q35.95 6.47 34.73 6.55L34.73 6.55Q33.31 5.59 31.86 1.81Q30.41-1.97 28.77-7.14L28.77-7.14L28.43-8.27Q28.43-6.05 25.68-2.60Q22.93 0.84 19.03 3.63Q15.12 6.43 11.80 6.89L11.80 6.89Q16.55 4.07 20.35-2.00Q24.15-8.06 26.31-14.36Q28.48-20.66 28.48-23.65L28.48-23.65Q26.08-23.06 24.07-22.39L24.07-22.39L22.76-21.97Q22.18-20.08 20.79-17.87Q19.40-15.67 17.77-13.94Q16.13-12.22 14.91-11.68L14.91-11.68Q16.38-14.20 17.43-17.83Q18.48-21.46 19.01-24.97Q19.53-28.48 19.53-30.62L19.53-30.62Q19.53-31.84 19.36-32.17L19.36-32.17Q20.24-32.42 21.38-32.42L21.38-32.42Q22.93-32.42 24.15-32.02Q25.37-31.63 25.41-31.04L25.41-31.04Q25.66-30.74 25.66-30.24L25.66-30.24Q25.66-29.57 25.28-28.90L25.28-28.90Q25.28-28.90 24.86-27.64L24.86-27.64Q24.86-27.47 24.61-26.80L24.61-26.80L28.85-27.55Q29.36-27.93 29.90-28.12Q30.45-28.31 31.67-28.56L31.67-28.56L32.80-28.85L33.64-28.31Q34.73-27.64 35.24-26.99Q35.74-26.33 35.83-24.82L35.83-24.82Q35.28-23.02 34.86-21.92L34.86-21.92Q34.52-21.34 34.40-21.04L34.40-21.04Q34.19-20.66 33.96-20.22Q33.73-19.78 33.39-19.24L33.39-19.24Q32.63-17.60 31.58-14.70Q30.53-11.80 30.95-11.68L30.95-11.68ZM17.81-8.27L17.81-8.27Q15.58-5.29 14.45-4.12Q13.31-2.94 10.96-1.01L10.96-1.01L9.16 0.46Q8.61 0.80 8.15 1.24Q7.69 1.68 7.35 2.06L7.35 2.06Q6.64 2.81 6.20 3.11Q5.75 3.40 4.96 3.40L4.96 3.40Q3.53 2.94 2.52 1.83Q1.51 0.71 1.34-2.14L1.34-2.14Q1.93-2.14 3.21-2.37Q4.49-2.60 5.82-3.13Q7.14-3.65 7.77-4.54L7.77-4.54Q7.39-5.17 7.39-7.52L7.39-7.52Q7.39-8.74 7.43-9.62Q7.48-10.50 7.52-11.05L7.52-11.05Q7.60-12.89 7.60-13.36L7.60-13.36Q7.27-13.23 6.43-13.06L6.43-13.06Q4.62-12.68 3.78-12.14L3.78-12.14Q2.69-12.81 1.95-13.71Q1.22-14.62 0.97-16.00L0.97-16.00Q1.05-16.21 7.60-17.39L7.60-17.39L7.60-21.80Q7.77-22.13 7.77-23.14L7.77-23.14Q7.77-24.19 7.60-24.86L7.60-24.86Q7.18-24.95 6.47-24.95L6.47-24.95Q6.09-24.95 5.42-24.86L5.42-24.86L4.45-24.82Q3.86-24.82 3.32-24.99L3.32-24.99Q2.77-25.28 1.83-26.65Q0.88-28.01 0.88-28.81L0.88-28.81Q0.88-29.15 1.09-29.27L1.09-29.27Q2.02-28.90 3.57-28.90L3.57-28.90Q5.63-28.90 8.23-29.46Q10.84-30.03 12.43-30.66L12.43-30.66Q12.52-30.70 13.06-30.91Q13.61-31.12 14.20-31.12L14.20-31.12Q14.78-31.12 15.41-30.83L15.41-30.83Q16.04-30.03 16.76-28.90Q17.47-27.76 17.51-27.26L17.51-27.26Q16.72-26.71 15.60-26.54Q14.49-26.38 12.64-26.33L12.64-26.33L11.63-26.29L11.68-22.34Q11.68-20.45 11.55-18.82L11.55-18.82Q11.55-18.65 12.41-18.92Q13.27-19.19 13.48-19.24L13.48-19.24Q14.28-19.53 14.45-19.53L14.45-19.53Q15.37-18.65 15.98-17.96Q16.59-17.26 16.59-16.55L16.59-16.55Q16.59-16.34 16.55-16.21L16.55-16.21Q16.38-15.75 15.52-15.52Q14.66-15.29 13.36-15.12L13.36-15.12Q12.43-14.99 12.10-14.87L12.10-14.87Q11.84-13.90 11.78-12.52Q11.72-11.13 11.72-8.90L11.72-8.90L11.63-5.75Q12.56-6.17 15.04-7.20Q17.51-8.23 17.81-8.27L17.81-8.27ZM22.30-28.18L22.30-28.18Q22.97-28.94 23.18-30.28L23.18-30.28Q23.02-30.45 23.02-30.45L23.02-30.45L22.64-30.45Q22.51-29.48 22.09-27.93L22.09-27.93L22.30-27.93L22.30-28.18ZM33.52-26.08L33.52-26.08Q33.43-26.12 33.22-26.21L33.22-26.21Q33.31-25.96 33.33-25.91Q33.35-25.87 33.52-25.70L33.52-25.70L33.52-25.96Q33.60-26.08 33.68-26.08L33.68-26.08L33.52-26.08ZM5.42-1.26L5.42-1.26Q5.21-0.88 5.12-0.55L5.12-0.55L5.42-0.55Q5.54-0.63 5.69-0.76Q5.84-0.88 5.96-1.05L5.96-1.05L5.96-1.26L5.42-1.26ZM35.11 2.10L35.11 2.10Q35.66 1.51 35.91 0.76L35.91 0.76Q35.66 0.55 35.18 0.15Q34.69-0.25 34.23-0.38L34.23-0.38Q34.19-0.29 34.06-0.08Q33.94 0.13 33.94 0.63L33.94 0.63Q34.10 0.84 34.27 1.24Q34.44 1.64 34.61 1.85Q34.78 2.06 35.11 2.23L35.11 2.23L35.11 2.10Z" transform="translate(44 169.806) " fill="rgb(0, 0, 0)" stroke="rgb(0, 0, 0)" stroke-width="0.07" data-glyph-w="44" data-glyph-h="54.978" data-glyph-ascender="43.806000000000004" data-glyph-descender="-11.172"></path><path d="M28.43-27.01L28.43-27.01Q25.70-26.92 24.99-26.96L24.99-26.96Q24.61-26.17 23.35-24.49L23.35-24.49Q21.92-22.55 21.55-21.59L21.55-21.59Q22.55-22.09 24.78-22.09L24.78-22.09Q26.12-22.09 27.51-21.97L27.51-21.97Q29.19-21.88 29.95-21.88L29.95-21.88Q31.42-21.88 32.17-22.18L32.17-22.18Q34.90-22.93 36.54-23.02L36.54-23.02L37.30-22.22Q38.18-21.34 38.56-20.85Q38.93-20.37 39.44-19.36L39.44-19.36Q39.44-18.61 38.49-12.92Q37.55-7.22 35.78 2.86L35.78 2.86Q34.99 4.62 34.29 5.65Q33.60 6.68 32.47 6.76L32.47 6.76Q32.17 6.51 31.71 6.22Q31.25 5.92 30.91 5.67L30.91 5.67Q30.41 5.33 30.11 4.87L30.11 4.87Q29.90 4.58 29.72 4.39Q29.53 4.20 29.06 3.99L29.06 3.99Q19.70 4.12 10.25 5.33L10.25 5.33Q10.21 6.01 10.06 6.24Q9.91 6.47 9.49 6.64L9.49 6.64Q9.24 6.76 8.99 6.76L8.99 6.76Q8.23 6.76 7.56 5.86Q6.89 4.96 6.13 3.53L6.13 3.53Q5.80 2.86 5.67 2.69L5.67 2.69Q5.25 1.97 5.25 0.76L5.25 0.76Q5.25 0.13 5.42-1.30L5.42-1.30Q5.67-3.07 5.59-3.99L5.59-3.99Q5.42-5.12 5.42-7.27L5.42-7.27L5.46-11.21Q5.46-14.41 5.12-16.25L5.12-16.25L4.66-18.19L4.03-20.79Q5.54-20.58 6.51-20.24Q7.48-19.91 7.48-19.24L7.48-19.24Q7.48-19.03 7.43-18.90L7.43-18.90Q8.15-19.49 9.20-19.72Q10.25-19.95 11.97-20.12L11.97-20.12Q13.69-20.29 14.49-20.50L14.49-20.50Q16.76-20.75 17.93-20.83L17.93-20.83Q18.31-21.21 18.65-23.27Q18.98-25.33 18.98-26.59L18.98-26.59Q18.14-26.54 15.50-26.17L15.50-26.17Q9.32-25.24 6.51-25.24L6.51-25.24Q5.25-25.24 4.49-25.45L4.49-25.45Q3.70-25.91 3.30-26.57Q2.90-27.22 2.52-28.31L2.52-28.31Q2.44-28.48 2.21-29.09Q1.97-29.69 1.64-30.16L1.64-30.16Q2.10-30.32 3.99-30.32L3.99-30.32Q5.08-30.32 8.36-30.24L8.36-30.24Q9.07-30.20 10.16-30.16Q11.26-30.11 12.73-30.11L12.73-30.11Q12.31-29.99 21.59-30.47Q30.87-30.95 31.75-31.08L31.75-31.08Q32.63-31.37 34.29-31.71Q35.95-32.05 36.92-32.05L36.92-32.05Q37.46-31.25 38.77-29.78L38.77-29.78Q39.56-28.85 39.90-28.39Q40.24-27.93 40.24-27.59L40.24-27.59Q40.24-26.96 38.77-26.84L38.77-26.84Q38.51-26.71 37.84-26.71L37.84-26.71Q37.21-26.71 36.54-26.75Q35.87-26.80 35.28-26.84L35.28-26.84Q31.92-27.05 30.95-27.05L30.95-27.05L28.43-27.01ZM26.75-18.10L26.75-18.10Q27.09-17.72 27.09-16.93L27.09-16.93L27.05-15.75Q26.88-14.07 26.88-11.93L26.88-11.93Q26.88-5.17 26.46 0.55L26.46 0.55Q27.51 0.25 30.91 0.25L30.91 0.25Q31.79-1.47 32.51-6.47Q33.22-11.47 33.22-15.37L33.22-15.37Q33.22-17.09 33.01-18.35L33.01-18.35Q32.63-18.52 32.00-18.52L32.00-18.52Q31.67-18.52 30.41-18.35L30.41-18.35Q30.11-18.31 29.04-18.21Q27.97-18.10 26.75-18.10L26.75-18.10ZM34.90-18.44L34.90-18.44Q34.90-18.27 34.88-18.19Q34.86-18.10 34.90-17.89L34.90-17.89Q34.99-17.81 35.05-17.75Q35.11-17.68 35.20-17.51L35.20-17.51L35.41-17.51Q35.45-17.60 35.51-17.75Q35.57-17.89 35.78-18.10L35.78-18.10L35.78-18.31Q35.62-18.31 35.62-18.44L35.62-18.44L34.90-18.44ZM22.81-17.98L22.81-17.98Q21.13-17.98 19.85-17.87Q18.56-17.77 18.10-17.35L18.10-17.35Q17.93-17.09 17.93-16.46Q17.93-15.83 17.93-15.71L17.93-15.71Q18.10-15.50 18.10-13.78L18.10-13.78L18.10-12.47Q19.03-12.60 20.92-12.94Q22.81-13.27 22.85-13.40L22.85-13.40Q22.81-14.32 22.81-17.98L22.81-17.98ZM14.49 1.39L14.49 1.39Q14.49-0.76 14.53-1.89L14.53-1.89L14.57-5.96Q14.57-13.40 13.78-16.59L13.78-16.59L12.22-16.59Q11.17-16.59 10.56-16.42Q9.95-16.25 9.32-15.71L9.32-15.71Q9.66-13.86 9.95-10.37L9.95-10.37Q10.29-7.10 10.50-5.84L10.50-5.84L10.50-2.86Q10.92-1.26 10.92 0.25L10.92 0.25Q10.92 1.13 10.71 2.06L10.71 2.06L11.17 2.06Q11.68 1.76 13.65 1.51L13.65 1.51L14.49 1.39ZM22.68-6.13L22.68-6.13Q22.76-6.38 22.85-7.50Q22.93-8.61 22.93-9.53L22.93-9.53Q22.93-10.16 22.89-10.21L22.89-10.21Q22.68-10.25 22.18-10.25L22.18-10.25Q20.96-10.25 19.78-9.98Q18.61-9.70 18.40-9.16L18.40-9.16Q18.19-8.90 18.19-8.27L18.19-8.27Q18.19-7.81 18.35-6.89L18.35-6.89Q18.40-6.72 18.44-6.47Q18.48-6.22 18.48-5.92L18.48-5.92L22.68-6.13ZM34.19-3.61L34.19-3.61Q34.19-3.44 34.25-3.36Q34.31-3.28 34.44-3.23L34.44-3.23L34.44-3.61L34.19-3.61ZM22.47 0.46L22.47 0.46Q22.47-0.38 22.55-1.22L22.55-1.22L22.60-2.06Q22.60-2.56 22.55-2.86L22.55-2.86Q22.30-2.94 21.97-2.94L21.97-2.94Q21.08-2.94 19.85-2.65Q18.61-2.35 18.56-2.10L18.56-2.10Q18.61-2.10 18.54-0.82Q18.48 0.46 18.48 0.55L18.48 0.55Q18.77 0.71 19.49 0.71L19.49 0.71Q20.29 0.71 21.55 0.55L21.55 0.55Q22.30 0.46 22.47 0.46L22.47 0.46Z" transform="translate(88 169.806) " fill="rgb(0, 0, 0)" stroke="rgb(0, 0, 0)" stroke-width="0.07" data-glyph-w="44" data-glyph-h="54.978" data-glyph-ascender="43.806000000000004" data-glyph-descender="-11.172"></path><path d="M17.51-23.98L17.51-23.98Q17.81-23.65 17.81-23.06L17.81-23.06Q17.81-22.60 17.64-22.07Q17.47-21.55 17.43-21.42L17.43-21.42L16.51-19.78Q16.09-19.03 14.70-17.22Q13.31-15.41 12.85-15.25L12.85-15.25Q12.81-15.54 12.81-16.21L12.81-16.21Q12.81-17.64 13.06-19.99L13.06-19.99Q13.10-20.41 13.15-20.79Q13.19-21.17 13.19-21.50L13.19-21.50Q12.85-21.29 9.58-20.83Q6.30-20.37 6.34-20.54L6.34-20.54L5.12-18.61Q4.66-17.47 3.70-16.21Q2.73-14.95 1.70-14.07Q0.67-13.19 0.13-13.10L0.13-13.10Q0.92-14.41 2.25-18.10Q3.57-21.80 4.56-25.60Q5.54-29.40 5.54-31.25L5.54-31.25Q5.54-31.75 5.50-31.92L5.50-31.92Q5.71-32.13 6.17-32.13L6.17-32.13Q7.06-32.13 8.38-31.44Q9.70-30.74 10.92-29.53L10.92-29.53Q10.63-28.31 10.23-27.55Q9.83-26.80 9.20-25.83L9.20-25.83Q8.32-24.53 8.06-23.81L8.06-23.81L9.49-24.15Q9.70-24.40 12.10-25.01Q14.49-25.62 14.91-25.62L14.91-25.62Q15.29-25.37 16.00-25.03L16.00-25.03Q17.18-24.44 17.51-23.98L17.51-23.98ZM38.51-27.80L38.51-27.80Q38.72-27.59 39.42-26.90Q40.11-26.21 40.57-25.31Q41.03-24.40 41.45-23.02L41.45-23.02Q40.40-21.97 40.19-21.71L40.19-21.71Q39.02-20.50 38.26-19.80Q37.51-19.11 36.75-18.73L36.75-18.73Q37.21-18.35 37.46-17.56L37.46-17.56L36.96-15.33Q36.79-14.36 36.79-13.19Q36.79-12.01 36.79-11.76L36.79-11.76Q36.79-9.95 36.62-8.95Q36.46-7.94 35.83-7.60L35.83-7.60Q35.32-7.56 34.44-7.75Q33.56-7.94 32.76-8.44L32.76-8.44Q32.38-8.23 31.44-8.17Q30.49-8.11 29.44-8.06L29.44-8.06Q27.55-7.98 26.52-7.83Q25.49-7.69 25.20-7.31L25.20-7.31Q25.16-6.76 25.16-5.80L25.16-5.80Q25.16-4.58 24.99-4.16L24.99-4.16Q26.00-4.24 26.88-4.24L26.88-4.24Q29.19-4.37 30.43-4.47Q31.67-4.58 32.76-4.96L32.76-4.96Q33.39-5.17 33.85-5.38L33.85-5.38Q34.23-5.54 34.71-5.69Q35.20-5.84 35.78-5.88L35.78-5.88Q36.08-5.63 37.04-4.77Q38.01-3.91 38.81-3.11L38.81-3.11Q38.81-1.39 38.62 1.03Q38.43 3.44 38.09 4.12L38.09 4.12Q37.34 5.71 36.41 5.71L36.41 5.71Q35.87 5.71 35.34 5.31Q34.82 4.91 34.73 4.87L34.73 4.87Q34.27 4.54 33.10 4.54L33.10 4.54Q31.79 4.54 28.43 5.04L28.43 5.04Q25.83 5.50 24.40 5.54L24.40 5.54Q23.86 6.01 23.39 7.18L23.39 7.18Q23.31 7.43 23.06 7.94L23.06 7.94Q22.05 7.43 21.50 6.85Q20.96 6.26 20.58 5.25L20.58 5.25Q20.54 4.96 20.54 4.37L20.54 4.37Q20.54 3.95 20.62 3.02L20.62 3.02Q20.62 2.81 20.69 2.00Q20.75 1.18 20.66 0.21L20.66 0.21Q20.66-1.55 20.87-5.75L20.87-5.75Q21.08-8.90 21.08-12.26L21.08-12.26Q21-12.64 21-13.69L21-13.69Q21-14.41 21.08-16.17L21.08-16.17Q21.17-18.40 21.13-19.15L21.13-19.15Q20.37-17.56 20.24-17.43L20.24-17.43Q19.91-17.22 19.32-17.62Q18.73-18.02 18.25-18.96Q17.77-19.91 17.68-21.29L17.68-21.29Q18.77-23.44 20.37-25.96L20.37-25.96L21.55-27.85Q21.50-28.48 21.92-27.55Q22.34-26.63 22.55-26.00L22.55-26.00Q22.89-25.79 23.65-25.79L23.65-25.79Q24.49-25.79 25.79-26.06Q27.09-26.33 28.14-26.59L28.14-26.59Q28.60-26.04 28.31-26.90Q28.01-27.76 27.17-29.23Q26.33-30.70 25.28-32.05L25.28-32.05Q25.87-32.05 26.42-32.00L26.42-32.00Q29.57-31.92 29.65-31.92L29.65-31.92Q32.30-31.84 32.30-29.69L32.30-29.69Q32.30-28.52 31.46-26.67L31.46-26.67Q31.37-26.59 31.92-26.59L31.92-26.59Q33.35-26.59 36.62-27.09L36.62-27.09Q36.92-27.17 37.42-27.43L37.42-27.43Q38.09-27.76 38.51-27.80L38.51-27.80ZM33.81-20.37L33.81-20.37Q34.44-19.91 35.41-19.53L35.41-19.53L36.16-19.15Q36.25-19.70 36.33-20.12Q36.41-20.54 36.46-20.87L36.46-20.87Q36.75-22.34 36.75-22.89L36.75-22.89Q36.75-23.27 36.62-23.52L36.62-23.52Q35.53-23.94 33.89-23.94L33.89-23.94Q31.79-23.94 27.68-23.18L27.68-23.18Q24.57-22.64 23.44-22.64L23.44-22.64Q23.02-22.64 22.60-22.72L22.60-22.72Q22.68-22.60 21.21-19.40L21.21-19.40Q21.67-19.15 22.18-19.07L22.18-19.07Q22.55-18.98 22.74-18.88Q22.93-18.77 23.06-18.44L23.06-18.44Q25.58-18.10 26.84-18.10L26.84-18.10Q28.98-18.10 30.74-18.69L30.74-18.69Q31.25-18.82 31.88-19.40L31.88-19.40Q32.38-19.82 32.80-20.08Q33.22-20.33 33.81-20.37L33.81-20.37ZM38.89-23.77L38.89-23.77Q38.93-23.81 39.02-24.02L39.02-24.02L38.77-24.02Q38.60-23.69 38.51-23.60L38.51-23.60L38.85-23.60L38.89-23.77ZM11.51-12.89L11.51-12.89Q11.51-10.88 11.17-6.17L11.17-6.17Q11.13-5.46 11.00-3.53Q10.88-1.60 10.88-0.25L10.88-0.25Q11.42-0.71 13.78-1.87Q16.13-3.02 17.14-3.23L17.14-3.23Q16.88-2.60 14.57 0.34L14.57 0.34Q13.19 2.10 13.19 2.23L13.19 2.23L12.10 3.91Q11.93 4.20 11.51 5.12L11.51 5.12Q11.09 6.22 10.56 6.72Q10.04 7.22 8.78 7.22L8.78 7.22Q8.32 6.89 7.77 6.59L7.77 6.59Q6.64 5.92 6.05 5.36Q5.46 4.79 5.38 3.78L5.38 3.78Q5.92 3.15 6.15 2.29Q6.38 1.43 6.55 0.04L6.55 0.04Q6.59-0.80 6.80-1.76L6.80-1.76Q7.27-4.03 7.27-7.18L7.27-7.18Q7.27-9.20 7.14-11.26L7.14-11.26Q7.06-13.44 7.06-14.62L7.06-14.62Q7.06-14.99 6.72-15.83L6.72-15.83Q6.43-16.46 6.38-16.84L6.38-16.84Q7.06-16.72 8.23-16.63L8.23-16.63Q9.41-16.55 10.14-16.40Q10.88-16.25 11.68-15.71L11.68-15.71Q11.84-15.37 11.84-14.99L11.84-14.99Q11.84-14.74 11.68-14.07Q11.51-13.40 11.51-12.89L11.51-12.89ZM32.63-11.42L32.63-11.42Q32.59-12.31 32.76-13.90L32.76-13.90Q32.76-14.20 32.82-14.85Q32.89-15.50 32.89-16.04L32.89-16.04Q32.13-15.71 28.73-15.54L28.73-15.54Q25.41-15.29 24.95-15.04L24.95-15.04Q25.12-14.57 25.12-10.71L25.12-10.71Q26.21-10.88 28.90-11.05L28.90-11.05Q31.58-11.21 32.63-11.42L32.63-11.42ZM25.12-1.13L25.12-1.13Q24.95-0.84 24.95 0.21L24.95 0.21L24.99 2.35Q26.25 2.27 27.59 2.14Q28.94 2.02 30.11 1.89L30.11 1.89L34.15 1.51L34.10-0.42Q34.06-0.88 34.06-1.72L34.06-1.72Q33.94-1.76 33.31-1.76L33.31-1.76Q31.63-1.76 28.46-1.53Q25.28-1.30 25.12-1.13L25.12-1.13ZM10.04 2.06L10.04 2.06Q10.08 1.89 10.14 1.74Q10.21 1.60 10.25 1.43L10.25 1.43L10.16 1.43Q10.08 1.55 9.93 1.66Q9.79 1.76 9.81 1.85Q9.83 1.93 10.04 2.06L10.04 2.06ZM8.40-13.86L8.27-13.86L8.40-13.44L8.40-13.86Z" transform="translate(132 169.806) " fill="rgb(0, 0, 0)" stroke="rgb(0, 0, 0)" stroke-width="0.07" data-glyph-w="44" data-glyph-h="54.978" data-glyph-ascender="43.806000000000004" data-glyph-descender="-11.172"></path></g></svg></g>
        </g><g id="shape_I14yRV7qIA" ref="shape_I14yRV7qIA" key="shape_I14yRV7qIA" transform="translate(261.99621528057,301.21877529143995) rotate(0,182.3175,73.98) scale(1,1)" style="cursor:move;display:inline;opacity:1;" filter="">
            <g style="display:inline"><svg xmlns="http://www.w3.org/2000/svg" version="1.1" xmlns:xlink="http://www.w3.org/1999/xlink" width="343" height="147.96" viewBox="0 0 343 147.96" preserveAspectRatio="none" data-parent="shape_I14yRV7qIA"><rect fill="rgba(0,0,0,0)" width="259" height="21" x="21" y="63.480000000000004"></rect><g data-width="258.978" transform="translate(21.010999999999996, 0)"><path d="M4.98 0.27L4.98 0.27Q2.06 0.27 0.74-2.16L0.74-2.16L2.12-3.15Q3.13-1.43 4.79-1.43L4.79-1.43Q6.03-1.43 6.65-2.19Q7.27-2.96 7.27-4.70L7.27-4.70L7.27-15.39L9.20-15.39L9.20-4.52Q9.20-3.19 8.77-2.11Q8.34-1.03 7.41-0.38Q6.49 0.27 4.98 0.27Z" transform="translate(0 81.48) " fill="rgb(51, 51, 51)" stroke="rgb(51, 51, 51)" stroke-width="0.035" data-glyph-w="13.256" data-glyph-h="21" data-glyph-ascender="18.48" data-glyph-descender="-2.52"></path><path d="M4.05 0L2.10 0L2.10-15.39L4.05-15.39L4.05 0Z" transform="translate(13.256 81.48) " fill="rgb(51, 51, 51)" stroke="rgb(51, 51, 51)" stroke-width="0.035" data-glyph-w="8.153" data-glyph-h="21" data-glyph-ascender="18.48" data-glyph-descender="-2.52"></path><path d="M7.56 0.27L7.56 0.27Q6.01 0.27 4.75-0.36Q3.49-0.99 2.76-2.44Q2.04-3.89 2.04-6.36L2.04-6.36L2.04-15.39L3.99-15.39L3.99-6.30Q3.99-4.45 4.46-3.38Q4.94-2.31 5.75-1.87Q6.57-1.43 7.56-1.43L7.56-1.43Q8.59-1.43 9.42-1.87Q10.25-2.31 10.74-3.38Q11.24-4.45 11.24-6.30L11.24-6.30L11.24-15.39L13.10-15.39L13.10-6.36Q13.10-3.89 12.38-2.44Q11.66-0.99 10.40-0.36Q9.13 0.27 7.56 0.27Z" transform="translate(21.409 81.48) " fill="rgb(51, 51, 51)" stroke="rgb(51, 51, 51)" stroke-width="0.035" data-glyph-w="17.141000000000002" data-glyph-h="21" data-glyph-ascender="18.48" data-glyph-descender="-2.52"></path><path d="M4.98 0.27L4.98 0.27Q2.06 0.27 0.74-2.16L0.74-2.16L2.12-3.15Q3.13-1.43 4.79-1.43L4.79-1.43Q6.03-1.43 6.65-2.19Q7.27-2.96 7.27-4.70L7.27-4.70L7.27-15.39L9.20-15.39L9.20-4.52Q9.20-3.19 8.77-2.11Q8.34-1.03 7.41-0.38Q6.49 0.27 4.98 0.27Z" transform="translate(38.55 81.48) " fill="rgb(51, 51, 51)" stroke="rgb(51, 51, 51)" stroke-width="0.035" data-glyph-w="13.256" data-glyph-h="21" data-glyph-ascender="18.48" data-glyph-descender="-2.52"></path><path d="M4.05 0L2.10 0L2.10-15.39L4.05-15.39L4.05 0Z" transform="translate(51.806 81.48) " fill="rgb(51, 51, 51)" stroke="rgb(51, 51, 51)" stroke-width="0.035" data-glyph-w="8.153" data-glyph-h="21" data-glyph-ascender="18.48" data-glyph-descender="-2.52"></path><path d="M7.56 0.27L7.56 0.27Q6.01 0.27 4.75-0.36Q3.49-0.99 2.76-2.44Q2.04-3.89 2.04-6.36L2.04-6.36L2.04-15.39L3.99-15.39L3.99-6.30Q3.99-4.45 4.46-3.38Q4.94-2.31 5.75-1.87Q6.57-1.43 7.56-1.43L7.56-1.43Q8.59-1.43 9.42-1.87Q10.25-2.31 10.74-3.38Q11.24-4.45 11.24-6.30L11.24-6.30L11.24-15.39L13.10-15.39L13.10-6.36Q13.10-3.89 12.38-2.44Q11.66-0.99 10.40-0.36Q9.13 0.27 7.56 0.27Z" transform="translate(59.958999999999996 81.48) " fill="rgb(51, 51, 51)" stroke="rgb(51, 51, 51)" stroke-width="0.035" data-glyph-w="17.141000000000002" data-glyph-h="21" data-glyph-ascender="18.48" data-glyph-descender="-2.52"></path><path d="" transform="translate(77.1 81.48) " fill="rgb(51, 51, 51)" stroke="rgb(51, 51, 51)" stroke-width="0.035" data-glyph-w="10.358" data-glyph-h="21" data-glyph-ascender="18.48" data-glyph-descender="-2.52"></path><path d="M3.95 0L2.10 0L2.10-15.39L4.12-15.39L9.72-5.69L11.36-2.52L11.47-2.52Q11.45-2.94 11.40-3.36L11.40-3.36Q11.21-5.42 11.21-7.39L11.21-7.39L11.21-15.39L13.06-15.39L13.06 0L11.07 0L5.46-9.72L3.80-12.89L3.72-12.89Q3.76-12.24 3.80-11.55L3.80-11.55Q3.95-9.83 3.95-8.09L3.95-8.09L3.95 0Z" transform="translate(87.458 81.48) " fill="rgb(51, 51, 51)" stroke="rgb(51, 51, 51)" stroke-width="0.035" data-glyph-w="17.162" data-glyph-h="21" data-glyph-ascender="18.48" data-glyph-descender="-2.52"></path><path d="M7.79 0.27L7.79 0.27Q4.89 0.27 3.06-1.89Q1.22-4.05 1.22-7.75L1.22-7.75Q1.22-11.45 3.06-13.57Q4.89-15.69 7.79-15.69L7.79-15.69Q10.69-15.69 12.53-13.57Q14.36-11.45 14.36-7.75L14.36-7.75Q14.36-4.05 12.53-1.89Q10.69 0.27 7.79 0.27ZM7.79-1.43L7.79-1.43Q9.85-1.43 11.11-3.15Q12.37-4.87 12.37-7.75L12.37-7.75Q12.37-10.65 11.11-12.32Q9.85-13.99 7.79-13.99L7.79-13.99Q5.71-13.99 4.46-12.32Q3.21-10.65 3.21-7.75L3.21-7.75Q3.21-4.87 4.46-3.15Q5.71-1.43 7.79-1.43Z" transform="translate(104.62 81.48) " fill="rgb(51, 51, 51)" stroke="rgb(51, 51, 51)" stroke-width="0.035" data-glyph-w="17.582" data-glyph-h="21" data-glyph-ascender="18.48" data-glyph-descender="-2.52"></path><path d="M7.79 0.27L7.79 0.27Q4.89 0.27 3.06-1.89Q1.22-4.05 1.22-7.75L1.22-7.75Q1.22-11.45 3.06-13.57Q4.89-15.69 7.79-15.69L7.79-15.69Q10.69-15.69 12.53-13.57Q14.36-11.45 14.36-7.75L14.36-7.75Q14.36-4.05 12.53-1.89Q10.69 0.27 7.79 0.27ZM7.79-1.43L7.79-1.43Q9.85-1.43 11.11-3.15Q12.37-4.87 12.37-7.75L12.37-7.75Q12.37-10.65 11.11-12.32Q9.85-13.99 7.79-13.99L7.79-13.99Q5.71-13.99 4.46-12.32Q3.21-10.65 3.21-7.75L3.21-7.75Q3.21-4.87 4.46-3.15Q5.71-1.43 7.79-1.43Z" transform="translate(122.202 81.48) " fill="rgb(51, 51, 51)" stroke="rgb(51, 51, 51)" stroke-width="0.035" data-glyph-w="17.582" data-glyph-h="21" data-glyph-ascender="18.48" data-glyph-descender="-2.52"></path><path d="M6.05 0L2.10 0L2.10-15.39L5.96-15.39Q9.51-15.39 11.37-13.41Q13.23-11.42 13.23-7.75L13.23-7.75Q13.23-4.10 11.38-2.05Q9.53 0 6.05 0L6.05 0ZM4.05-13.82L4.05-1.60L5.80-1.60Q8.53-1.60 9.87-3.21Q11.21-4.83 11.21-7.75L11.21-7.75Q11.21-10.69 9.87-12.25Q8.53-13.82 5.80-13.82L5.80-13.82L4.05-13.82Z" transform="translate(139.784 81.48) " fill="rgb(51, 51, 51)" stroke="rgb(51, 51, 51)" stroke-width="0.035" data-glyph-w="16.427" data-glyph-h="21" data-glyph-ascender="18.48" data-glyph-descender="-2.52"></path><path d="M10.77 0L2.10 0L2.10-15.39L4.05-15.39L4.05-1.66L10.77-1.66L10.77 0Z" transform="translate(156.21099999999998 81.48) " fill="rgb(51, 51, 51)" stroke="rgb(51, 51, 51)" stroke-width="0.035" data-glyph-w="13.382000000000001" data-glyph-h="21" data-glyph-ascender="18.48" data-glyph-descender="-2.52"></path><path d="M11.21 0L2.10 0L2.10-15.39L10.98-15.39L10.98-13.76L4.05-13.76L4.05-8.93L9.89-8.93L9.89-7.27L4.05-7.27L4.05-1.66L11.21-1.66L11.21 0Z" transform="translate(169.593 81.48) " fill="rgb(51, 51, 51)" stroke="rgb(51, 51, 51)" stroke-width="0.035" data-glyph-w="14.348" data-glyph-h="21" data-glyph-ascender="18.48" data-glyph-descender="-2.52"></path><path d="" transform="translate(183.941 81.48) " fill="rgb(51, 51, 51)" stroke="rgb(51, 51, 51)" stroke-width="0.035" data-glyph-w="10.358" data-glyph-h="21" data-glyph-ascender="18.48" data-glyph-descender="-2.52"></path><path d="M6.38 0.27L6.38 0.27Q4.75 0.27 3.37-0.34Q2.00-0.95 0.99-2.02L0.99-2.02L2.14-3.34Q4.01-1.43 6.41-1.43L6.41-1.43Q7.92-1.43 8.78-2.12Q9.64-2.81 9.64-3.95L9.64-3.95Q9.64-4.75 9.30-5.22Q8.97-5.69 8.39-6.03Q7.81-6.36 7.08-6.68L7.08-6.68L4.85-7.64Q4.12-7.94 3.40-8.44Q2.69-8.95 2.21-9.71Q1.72-10.48 1.72-11.59L1.72-11.59Q1.72-13.38 3.10-14.53Q4.47-15.69 6.57-15.69L6.57-15.69Q7.94-15.69 9.11-15.16Q10.29-14.64 11.11-13.78L11.11-13.78L10.08-12.54Q9.37-13.21 8.51-13.60Q7.64-13.99 6.57-13.99L6.57-13.99Q5.27-13.99 4.48-13.38Q3.70-12.77 3.70-11.72L3.70-11.72Q3.70-10.98 4.08-10.50Q4.47-10.02 5.05-9.71Q5.63-9.41 6.24-9.16L6.24-9.16L8.44-8.21Q9.35-7.83 10.06-7.31Q10.77-6.78 11.19-6.02Q11.61-5.25 11.61-4.10L11.61-4.10Q11.61-2.27 10.21-1.00Q8.80 0.27 6.38 0.27Z" transform="translate(194.299 81.48) " fill="rgb(51, 51, 51)" stroke="rgb(51, 51, 51)" stroke-width="0.035" data-glyph-w="14.537" data-glyph-h="21" data-glyph-ascender="18.48" data-glyph-descender="-2.52"></path><path d="M4.05 0L2.10 0L2.10-15.39L4.05-15.39L4.05-8.95L11.24-8.95L11.24-15.39L13.17-15.39L13.17 0L11.24 0L11.24-7.27L4.05-7.27L4.05 0Z" transform="translate(208.836 81.48) " fill="rgb(51, 51, 51)" stroke="rgb(51, 51, 51)" stroke-width="0.035" data-glyph-w="17.288" data-glyph-h="21" data-glyph-ascender="18.48" data-glyph-descender="-2.52"></path><path d="M7.79 0.27L7.79 0.27Q4.89 0.27 3.06-1.89Q1.22-4.05 1.22-7.75L1.22-7.75Q1.22-11.45 3.06-13.57Q4.89-15.69 7.79-15.69L7.79-15.69Q10.69-15.69 12.53-13.57Q14.36-11.45 14.36-7.75L14.36-7.75Q14.36-4.05 12.53-1.89Q10.69 0.27 7.79 0.27ZM7.79-1.43L7.79-1.43Q9.85-1.43 11.11-3.15Q12.37-4.87 12.37-7.75L12.37-7.75Q12.37-10.65 11.11-12.32Q9.85-13.99 7.79-13.99L7.79-13.99Q5.71-13.99 4.46-12.32Q3.21-10.65 3.21-7.75L3.21-7.75Q3.21-4.87 4.46-3.15Q5.71-1.43 7.79-1.43Z" transform="translate(226.12400000000002 81.48) " fill="rgb(51, 51, 51)" stroke="rgb(51, 51, 51)" stroke-width="0.035" data-glyph-w="17.582" data-glyph-h="21" data-glyph-ascender="18.48" data-glyph-descender="-2.52"></path><path d="M4.05 0L2.10 0L2.10-15.39L6.49-15.39Q8.23-15.39 9.52-14.96Q10.82-14.53 11.54-13.55Q12.26-12.56 12.26-10.88L12.26-10.88Q12.26-9.26 11.55-8.20Q10.84-7.14 9.55-6.63Q8.27-6.11 6.59-6.11L6.59-6.11L4.05-6.11L4.05 0ZM4.05-13.82L4.05-7.69L6.34-7.69Q10.42-7.69 10.33-10.88L10.33-10.88Q10.33-12.56 9.31-13.19Q8.29-13.82 6.26-13.82L6.26-13.82L4.05-13.82Z" transform="translate(243.70600000000002 81.48) " fill="rgb(51, 51, 51)" stroke="rgb(51, 51, 51)" stroke-width="0.035" data-glyph-w="15.272" data-glyph-h="21" data-glyph-ascender="18.48" data-glyph-descender="-2.52"></path></g></svg></g>
        </g></svg>